<svg width="16" height="16" viewBox="0 0 16 16" fill="none" xmlns="http://www.w3.org/2000/svg">
<path d="M8.35627 11.3563L13.3563 6.35625C13.4241 6.28396 13.4701 6.19394 13.4889 6.09661C13.5077 5.99927 13.4985 5.89861 13.4625 5.80625C13.4243 5.71525 13.3599 5.63761 13.2776 5.58311C13.1953 5.52861 13.0987 5.49969 13 5.5L3.00002 5.5C2.90131 5.49969 2.80472 5.52861 2.72241 5.58311C2.64011 5.63761 2.57578 5.71525 2.53752 5.80625C2.51303 5.86793 2.50031 5.93364 2.50002 6C2.50058 6.13277 2.55203 6.26027 2.64377 6.35625L7.64377 11.3563C7.73857 11.4501 7.8666 11.5028 8.00002 11.5028C8.13345 11.5028 8.26148 11.4501 8.35627 11.3563V11.3563Z" fill="#666666"/>
</svg>
