<svg width="24" height="24" viewBox="0 0 24 24" fill="none" xmlns="http://www.w3.org/2000/svg">
<path d="M22.6737 15.1335C22.0857 14.711 21.3972 14.4354 20.6504 14.3168C20.3758 14.2735 20.0941 14.2507 19.8061 14.2507C17.9522 14.2507 17.256 14.8558 16.4502 15.5566L16.4493 15.5574C15.6725 16.2326 14.7059 17.0728 12.946 17.0728H11.8951C10.6228 17.0728 9.46578 16.6199 8.63754 15.7972C7.8282 14.9943 7.38282 13.8944 7.38282 12.7009V11.2895C7.38282 10.0959 7.82892 8.9967 8.63754 8.19318C9.46578 7.37034 10.6228 6.91758 11.8951 6.91758H12.946C14.706 6.91758 15.6726 7.75774 16.4494 8.43298L16.4502 8.43366C17.256 9.13452 17.9522 9.73962 19.8061 9.73962C20.0948 9.73962 20.3765 9.71688 20.6512 9.67344L20.6504 9.67206C21.3972 9.55422 22.0857 9.27786 22.6737 8.85546C22.6723 8.84922 22.6702 8.84304 22.6681 8.83614C22.3288 7.7556 21.8173 6.73704 21.1486 5.81014C20.4875 4.89496 19.6887 4.08935 18.7733 3.41607C16.873 2.01781 14.6095 1.27904 12.2266 1.27904C10.7513 1.27904 9.321 1.56228 7.97496 2.12048C6.67458 2.66008 5.50631 3.4326 4.50241 4.41738C3.49852 5.40216 2.71101 6.54822 2.16094 7.82382C1.5919 9.14418 1.30316 10.5473 1.30316 11.9945C1.30316 13.4417 1.5919 14.8447 2.16094 16.1651C2.71101 17.4407 3.49852 18.5867 4.50241 19.5715C5.50631 20.5563 6.67458 21.3289 7.97496 21.8684C9.321 22.4267 10.7513 22.7099 12.2266 22.7099C14.6095 22.7099 16.873 21.9712 18.7733 20.5729C19.6887 19.8996 20.4875 19.094 21.1486 18.1788C21.8173 17.2519 22.3288 16.2334 22.6681 15.1528C22.6702 15.1459 22.6716 15.1397 22.6737 15.1335Z" fill="#666666"/>
</svg>
