<svg width="24" height="24" viewBox="0 0 24 24" fill="none" xmlns="http://www.w3.org/2000/svg">
<path d="M23.1842 15.9188L19.9967 5.30632C19.9354 5.09168 19.8258 4.89391 19.6763 4.72816C19.5268 4.56241 19.3414 4.43308 19.1342 4.35007H19.0779L19.1342 4.33132C18.0883 3.91226 17.0054 3.59211 15.8998 3.37507C15.8031 3.35597 15.7037 3.3561 15.6071 3.37544C15.5105 3.39479 15.4186 3.43298 15.3368 3.48782C15.255 3.54267 15.1847 3.6131 15.1301 3.6951C15.0755 3.77709 15.0376 3.86905 15.0185 3.9657C14.998 4.06178 14.9968 4.16099 15.0151 4.25754C15.0333 4.35408 15.0705 4.44604 15.1246 4.52806C15.1787 4.61007 15.2486 4.68051 15.3301 4.73525C15.4117 4.79 15.5034 4.82797 15.5998 4.84695C16.0217 4.93132 16.4342 5.03445 16.8373 5.14695C16.9858 5.22402 17.1042 5.34852 17.1738 5.50066C17.2434 5.65279 17.2601 5.82382 17.2213 5.98655C17.1825 6.14928 17.0904 6.29437 16.9597 6.39874C16.829 6.50312 16.6671 6.56078 16.4998 6.56257H16.4248C14.9801 6.1858 13.4928 5.99674 11.9998 6.00007C10.5418 5.99573 9.08935 6.17847 7.67791 6.54382C7.49831 6.59121 7.30751 6.57027 7.14246 6.48504C6.97741 6.39982 6.84987 6.25638 6.78452 6.0825C6.71917 5.90863 6.72067 5.71668 6.78872 5.54385C6.85678 5.37102 6.98655 5.22959 7.15291 5.14695H7.16229C7.56541 5.03445 7.97791 4.93132 8.39979 4.84695C8.49644 4.82788 8.58839 4.78996 8.67039 4.73535C8.75238 4.68075 8.82281 4.61052 8.87766 4.52868C8.93251 4.44684 8.9707 4.355 8.99004 4.25841C9.00939 4.16181 9.00951 4.06235 8.99041 3.9657C8.94967 3.77171 8.83468 3.60134 8.67002 3.49098C8.50536 3.38063 8.30408 3.33903 8.10916 3.37507C6.99956 3.59696 5.91346 3.92342 4.86541 4.35007C4.65821 4.43308 4.47275 4.56241 4.32325 4.72816C4.17375 4.89391 4.06417 5.09168 4.00291 5.30632L0.815412 15.9188C0.732721 16.1963 0.732094 16.4918 0.813607 16.7696C0.89512 17.0474 1.05529 17.2957 1.27479 17.4844C1.36103 17.5675 1.45179 17.6458 1.54666 17.7188H1.55604C3.07479 18.9563 5.07166 19.9032 7.32166 20.447C7.37925 20.4654 7.43932 20.4749 7.49979 20.4751C7.68522 20.478 7.86516 20.4121 8.00487 20.2902C8.14459 20.1682 8.23416 19.9988 8.25631 19.8147C8.27845 19.6306 8.23159 19.4448 8.12477 19.2932C8.01795 19.1416 7.85875 19.0349 7.67791 18.9938C6.6664 18.7495 5.683 18.4007 4.74354 17.9532V17.9532C4.61495 17.8327 4.5329 17.6708 4.51176 17.4959C4.49063 17.3209 4.53176 17.1441 4.62795 16.9965C4.72414 16.8489 4.86924 16.7398 5.0378 16.6885C5.20637 16.6371 5.38762 16.6468 5.54979 16.7157C7.33104 17.5032 9.57166 18.0001 11.9998 18.0001C14.4279 18.0001 16.6685 17.5032 18.4498 16.7157C18.6119 16.6468 18.7932 16.6371 18.9618 16.6885C19.1303 16.7398 19.2754 16.8489 19.3716 16.9965C19.4678 17.1441 19.5089 17.3209 19.4878 17.4959C19.4667 17.6708 19.3846 17.8327 19.256 17.9532C18.3166 18.4007 17.3332 18.7495 16.3217 18.9938C16.1408 19.0349 15.9816 19.1416 15.8748 19.2932C15.768 19.4448 15.7211 19.6306 15.7433 19.8147C15.7654 19.9988 15.855 20.1682 15.9947 20.2902C16.1344 20.4121 16.3144 20.478 16.4998 20.4751C16.5603 20.4749 16.6203 20.4654 16.6779 20.447C18.9279 19.9032 20.9248 18.9563 22.4435 17.7188H22.4529C22.5478 17.6458 22.6385 17.5675 22.7248 17.4844C22.9443 17.2957 23.1045 17.0474 23.186 16.7696C23.2675 16.4918 23.2669 16.1963 23.1842 15.9188V15.9188ZM8.99979 14.6251C8.77728 14.6251 8.55978 14.5591 8.37477 14.4355C8.18976 14.3119 8.04557 14.1362 7.96042 13.9306C7.87527 13.725 7.85299 13.4988 7.8964 13.2806C7.93981 13.0624 8.04696 12.8619 8.20429 12.7046C8.36163 12.5472 8.56208 12.4401 8.78031 12.3967C8.99854 12.3533 9.22474 12.3756 9.43031 12.4607C9.63587 12.5459 9.81157 12.6901 9.93519 12.8751C10.0588 13.0601 10.1248 13.2776 10.1248 13.5001C10.1248 13.7984 10.0063 14.0846 9.79528 14.2956C9.5843 14.5065 9.29815 14.6251 8.99979 14.6251ZM14.9998 14.6251C14.7773 14.6251 14.5598 14.5591 14.3748 14.4355C14.1898 14.3119 14.0456 14.1362 13.9604 13.9306C13.8753 13.725 13.853 13.4988 13.8964 13.2806C13.9398 13.0624 14.047 12.8619 14.2043 12.7046C14.3616 12.5472 14.5621 12.4401 14.7803 12.3967C14.9985 12.3533 15.2247 12.3756 15.4303 12.4607C15.6359 12.5459 15.8116 12.6901 15.9352 12.8751C16.0588 13.0601 16.1248 13.2776 16.1248 13.5001C16.1248 13.7984 16.0063 14.0846 15.7953 14.2956C15.5843 14.5065 15.2982 14.6251 14.9998 14.6251Z" fill="#666666"/>
</svg>
