<svg width="24" height="24" viewBox="0 0 24 24" fill="none" xmlns="http://www.w3.org/2000/svg">
<path d="M21 21C21 21.199 20.921 21.3897 20.7803 21.5304C20.6397 21.671 20.4489 21.75 20.25 21.75C19.4551 21.7476 18.6935 21.4307 18.1314 20.8686C17.5693 20.3066 17.2525 19.5449 17.25 18.75V18C17.25 17.6022 17.092 17.2207 16.8107 16.9394C16.5294 16.6581 16.1478 16.5 15.75 16.5H14.625V20.25C14.625 20.6479 14.783 21.0294 15.0643 21.3107C15.3456 21.592 15.7272 21.75 16.125 21.75C16.3239 21.75 16.5147 21.8291 16.6553 21.9697C16.796 22.1104 16.875 22.3011 16.875 22.5C16.875 22.699 16.796 22.8897 16.6553 23.0304C16.5147 23.171 16.3239 23.25 16.125 23.25C15.3301 23.2476 14.5685 22.9307 14.0064 22.3686C13.4443 21.8066 13.1275 21.0449 13.125 20.25V16.5H10.875V20.25C10.8725 21.0449 10.5557 21.8066 9.99359 22.3686C9.43151 22.9307 8.66989 23.2476 7.875 23.25C7.67609 23.25 7.48532 23.171 7.34467 23.0304C7.20402 22.8897 7.125 22.699 7.125 22.5C7.125 22.3011 7.20402 22.1104 7.34467 21.9697C7.48532 21.8291 7.67609 21.75 7.875 21.75C8.27282 21.75 8.65436 21.592 8.93566 21.3107C9.21696 21.0294 9.375 20.6479 9.375 20.25V16.5H8.25C7.85218 16.5 7.47064 16.6581 7.18934 16.9394C6.90804 17.2207 6.75 17.6022 6.75 18V18.75C6.74753 19.5449 6.43066 20.3066 5.86859 20.8686C5.30651 21.4307 4.54489 21.7476 3.75 21.75C3.55109 21.75 3.36032 21.671 3.21967 21.5304C3.07902 21.3897 3 21.199 3 21C3 20.8011 3.07902 20.6104 3.21967 20.4697C3.36032 20.3291 3.55109 20.25 3.75 20.25C4.14782 20.25 4.52936 20.092 4.81066 19.8107C5.09196 19.5294 5.25 19.1479 5.25 18.75V18C5.25062 17.4957 5.378 16.9995 5.62045 16.5572C5.8629 16.1149 6.21263 15.7406 6.6375 15.4688C5.97493 14.9829 5.43615 14.3477 5.06479 13.6148C4.69343 12.8818 4.49994 12.0717 4.5 11.25V10.5C4.50936 9.56843 4.75793 8.65485 5.22188 7.84692C4.99332 7.10692 4.92031 6.32763 5.00743 5.55805C5.09455 4.78847 5.33993 4.04523 5.72812 3.37505C5.79223 3.26012 5.88616 3.16462 6.00001 3.09862C6.11386 3.03262 6.24341 2.99856 6.375 3.00005C7.24864 2.99785 8.11066 3.2002 8.89207 3.59091C9.67348 3.98161 10.3526 4.54982 10.875 5.25005H13.125C13.6474 4.54982 14.3265 3.98161 15.1079 3.59091C15.8893 3.2002 16.7514 2.99785 17.625 3.00005C17.7566 2.99856 17.8861 3.03262 18 3.09862C18.1138 3.16462 18.2078 3.26012 18.2719 3.37505C18.6601 4.04523 18.9054 4.78847 18.9926 5.55805C19.0797 6.32763 19.0067 7.10692 18.7781 7.84692C19.2421 8.65485 19.4906 9.56843 19.5 10.5V11.25C19.5001 12.0717 19.3066 12.8818 18.9352 13.6148C18.5639 14.3477 18.0251 14.9829 17.3625 15.4688C17.7874 15.7406 18.1371 16.1149 18.3796 16.5572C18.622 16.9995 18.7494 17.4957 18.75 18V18.75C18.75 19.1479 18.908 19.5294 19.1893 19.8107C19.4706 20.092 19.8522 20.25 20.25 20.25C20.4489 20.25 20.6397 20.3291 20.7803 20.4697C20.921 20.6104 21 20.8011 21 21Z" fill="#666666"/>
</svg>
