<svg width="24" height="24" viewBox="0 0 24 24" fill="none" xmlns="http://www.w3.org/2000/svg">
<path d="M21.6845 2.97208C21.4764 2.79576 21.2245 2.67912 20.9554 2.63455C20.6863 2.58998 20.4102 2.61915 20.1564 2.71895L2.85013 9.51583C2.54658 9.63148 2.28946 9.84371 2.11837 10.1198C1.94727 10.396 1.87169 10.7207 1.90325 11.044C1.93141 11.3671 2.06358 11.6725 2.27993 11.9142C2.49628 12.1559 2.78516 12.3209 3.10325 12.3846L7.50013 13.2565V18.7502C7.49997 19.0474 7.5881 19.338 7.75335 19.585C7.91859 19.832 8.1535 20.0244 8.42825 20.1377C8.61009 20.2109 8.80412 20.2491 9.00013 20.2502C9.19714 20.2509 9.39231 20.2123 9.57421 20.1366C9.75611 20.061 9.9211 19.9498 10.0595 19.8096L12.497 17.3815L16.1814 20.6252C16.4534 20.8651 16.8031 20.9983 17.1658 21.0002C17.3252 21.0035 17.484 20.9781 17.6345 20.9252C17.8819 20.8469 18.1046 20.7054 18.2805 20.5147C18.4564 20.324 18.5795 20.0906 18.6376 19.8377L22.1626 4.44395C22.2242 4.17833 22.2123 3.90093 22.128 3.6416C22.0438 3.38226 21.8905 3.15079 21.6845 2.97208V2.97208ZM17.1751 19.5002L9.45013 12.7033L20.5783 4.66895L17.1751 19.5002Z" fill="#666666"/>
</svg>
