<svg width="32" height="32" viewBox="0 0 32 32" fill="none" xmlns="http://www.w3.org/2000/svg">
<path d="M23.5 13C22.3934 13.002 21.3261 13.4106 20.5011 14.1481C19.676 14.8856 19.1507 15.9005 19.025 17H16.3125C15.578 17.0012 14.8522 16.8405 14.1867 16.5294C13.5213 16.2183 12.9326 15.7644 12.4625 15.2L10.3125 12.6125C11.2869 12.1799 12.0755 11.4146 12.537 10.4535C12.9985 9.49249 13.1028 8.39853 12.8312 7.3676C12.5596 6.33667 11.9298 5.43612 11.0546 4.82726C10.1795 4.2184 9.11614 3.941 8.05508 4.04474C6.99403 4.14849 6.00457 4.62661 5.26394 5.39346C4.52331 6.16031 4.07988 7.16579 4.01309 8.22981C3.9463 9.29383 4.26051 10.3469 4.89943 11.2003C5.53836 12.0538 6.46026 12.6519 7.50001 12.8875V19.1125C6.42132 19.3583 5.47101 19.9929 4.83059 20.8951C4.19016 21.7972 3.90452 22.9037 4.02823 24.0031C4.15193 25.1025 4.67631 26.1178 5.50119 26.8551C6.32608 27.5924 7.39366 28 8.50001 28C9.60636 28 10.6739 27.5924 11.4988 26.8551C12.3237 26.1178 12.8481 25.1025 12.9718 24.0031C13.0955 22.9037 12.8099 21.7972 12.1694 20.8951C11.529 19.9929 10.5787 19.3583 9.50001 19.1125V14.7625L10.9375 16.475C11.5901 17.2681 12.411 17.9062 13.3406 18.3429C14.2703 18.7796 15.2854 19.0041 16.3125 19H19.2625C19.5376 19.778 20.0213 20.4654 20.6607 20.987C21.3002 21.5086 22.0708 21.8443 22.8882 21.9575C23.7056 22.0706 24.5384 21.9568 25.2955 21.6285C26.0526 21.3002 26.7048 20.77 27.1809 20.096C27.6569 19.4219 27.9385 18.6299 27.9947 17.8066C28.0509 16.9833 27.8797 16.1604 27.4997 15.4279C27.1197 14.6954 26.5456 14.0814 25.8402 13.6532C25.1348 13.225 24.3252 12.999 23.5 13ZM11 23.5C11 23.9944 10.8534 24.4778 10.5787 24.8889C10.304 25.3 9.91354 25.6205 9.45672 25.8097C8.9999 25.9989 8.49724 26.0484 8.01228 25.9519C7.52733 25.8555 7.08188 25.6174 6.73224 25.2677C6.38261 24.9181 6.14451 24.4727 6.04805 23.9877C5.95158 23.5028 6.00109 23.0001 6.19031 22.5433C6.37953 22.0865 6.69996 21.696 7.11109 21.4213C7.52221 21.1466 8.00556 21 8.50001 21C9.16204 21.0033 9.79602 21.2677 10.2641 21.7358C10.7323 22.204 10.9967 22.838 11 23.5ZM23.5 20C23.0056 20 22.5222 19.8534 22.1111 19.5787C21.7 19.304 21.3795 18.9135 21.1903 18.4567C21.0011 17.9999 20.9516 17.4972 21.048 17.0123C21.1445 16.5273 21.3826 16.0818 21.7322 15.7322C22.0819 15.3826 22.5273 15.1445 23.0123 15.048C23.4972 14.9516 23.9999 15.0011 24.4567 15.1903C24.9135 15.3795 25.304 15.6999 25.5787 16.1111C25.8534 16.5222 26 17.0055 26 17.5C25.9967 18.162 25.7323 18.796 25.2641 19.2641C24.796 19.7322 24.162 19.9967 23.5 20Z" fill="url(#paint0_linear_227_260)"/>
<defs>
<linearGradient id="paint0_linear_227_260" x1="4" y1="4.02344" x2="27.9765" y2="28.0286" gradientUnits="userSpaceOnUse">
<stop stop-color="#45E645"/>
<stop offset="0.510417" stop-color="#39B7BF"/>
<stop offset="1" stop-color="#4555E6"/>
</linearGradient>
</defs>
</svg>
